<svg xmlns="http://www.w3.org/2000/svg" viewBox="0 0 79 47.4"><defs><style>.a{fill:#016fd0;}.b{fill:#fff;}</style></defs><g transform="translate(-55.5 -1065.35)"><g transform="translate(0 -1.967)"><rect class="a" width="79" height="47.4" transform="translate(55.5 1067.317)"/><path class="b" d="M249.14,1553.2v-12.372h13.1l1.405,1.832,1.452-1.832h47.549v11.519a5.492,5.492,0,0,1-2.682.853H283.636l-1.585-1.95v1.95h-5.193v-3.329a4.357,4.357,0,0,1-2.243.465h-1.767v2.865h-7.862l-1.4-1.872-1.425,1.872Z" transform="translate(-178.343 -448.303)"/><path class="b" d="M55.5,1342.51l2.954-6.887h5.109l1.676,3.858v-3.858H71.59l1,2.788.968-2.788h28.508v1.4a6.15,6.15,0,0,1,3.962-1.4l9.25.032,1.648,3.807v-3.84h5.315l1.463,2.187v-2.187h5.363V1348H123.7l-1.4-2.194V1348h-7.808l-.785-1.95h-2.1l-.772,1.95h-5.3a5.234,5.234,0,0,1-3.474-1.373V1348H94.079l-1.585-1.95V1348H62.806l-.785-1.95H59.928l-.779,1.95H55.5Z" transform="translate(0 -259.306)"/><path class="a" d="M59.677,1354.93l-3.984,9.264h2.594l.735-1.855H63.3l.731,1.855h2.651L62.7,1354.93Zm1.474,2.156,1.3,3.242H59.845Z" transform="translate(-0.178 -277.088)"/><path class="a" d="M198.223,1364.17v-9.264l3.686.014,2.144,5.973,2.093-5.986H209.8v9.264h-2.316v-6.826l-2.455,6.826H203l-2.462-6.826v6.826Z" transform="translate(-131.448 -277.066)"/><path class="a" d="M364.861,1364.17v-9.264h7.557v2.072H367.2v1.585h5.1v1.95h-5.1v1.646h5.217v2.011Z" transform="translate(-284.922 -277.066)"/><path class="a" d="M477.5,1354.93v9.264h2.316V1360.9h.975l2.777,3.291h2.83l-3.047-3.413a2.821,2.821,0,0,0,2.541-2.845,3,3,0,0,0-3.238-3.005Zm2.316,2.072h2.647a1.063,1.063,0,0,1,1.1.975,1.047,1.047,0,0,1-1.063.975h-2.682Z" transform="translate(-388.66 -277.088)"/><path class="a" d="M598.051,1364.17h-2.365v-9.264h2.365Z" transform="translate(-497.512 -277.066)"/><path class="a" d="M644.372,1364.17h-.51c-2.47,0-3.969-1.946-3.969-4.594,0-2.714,1.483-4.67,4.6-4.67h2.56v2.194H644.4a2.228,2.228,0,0,0-2.161,2.5,2.268,2.268,0,0,0,2.5,2.547h.609Z" transform="translate(-538.226 -277.066)"/><path class="a" d="M713.936,1354.93l-3.984,9.264h2.594l.735-1.855h4.274l.731,1.855h2.651l-3.981-9.264Zm1.474,2.156,1.3,3.242H714.1Z" transform="translate(-602.75 -277.088)"/><path class="a" d="M852.433,1364.17v-9.264h2.944l3.76,5.82v-5.82h2.316v9.264H858.6l-3.855-5.973v5.973Z" transform="translate(-733.976 -277.066)"/><path class="a" d="M269.2,1569.39v-9.264h7.557v2.072h-5.217v1.585h5.1v1.95h-5.1v1.646h5.217v2.011Z" transform="translate(-196.816 -466.073)"/><path class="a" d="M737.947,1569.39v-9.264H745.5v2.072h-5.217v1.585h5.071v1.95h-5.071v1.646H745.5v2.011Z" transform="translate(-628.534 -466.073)"/><path class="a" d="M367.553,1569.39l3.68-4.575-3.767-4.689h2.918l2.244,2.9,2.251-2.9h2.8l-3.718,4.632,3.686,4.632h-2.917l-2.178-2.853-2.125,2.853Z" transform="translate(-287.32 -466.073)"/><path class="a" d="M499.869,1560.14v9.264h2.377v-2.925h2.438c2.063,0,3.626-1.094,3.626-3.223a3.049,3.049,0,0,0-3.325-3.116Zm2.377,2.095h2.567a1.046,1.046,0,0,1,1.143,1.067,1.069,1.069,0,0,1-1.15,1.067h-2.56Z" transform="translate(-409.264 -466.086)"/><path class="a" d="M619.448,1560.12v9.264h2.316v-3.291h.975l2.777,3.291h2.83l-3.047-3.413a2.821,2.821,0,0,0,2.541-2.845,3,3,0,0,0-3.238-3.005Zm2.316,2.072h2.647a1.063,1.063,0,0,1,1.1.975,1.047,1.047,0,0,1-1.063.975h-2.682Z" transform="translate(-519.396 -466.068)"/><path class="a" d="M843.759,1569.389v-2.011h4.635c.686,0,.983-.371.983-.777,0-.389-.3-.783-.983-.783H846.3a2.59,2.59,0,0,1-2.835-2.775c0-1.485.929-2.918,3.634-2.918h4.51l-.975,2.084h-3.9c-.746,0-.975.391-.975.765a.808.808,0,0,0,.853.808h2.194c2.03,0,2.91,1.151,2.91,2.659a2.777,2.777,0,0,1-3.021,2.948Z" transform="translate(-725.716 -466.073)"/><path class="a" d="M951.356,1569.389v-2.011h4.635c.686,0,.983-.371.983-.777,0-.389-.3-.783-.983-.783H953.9a2.59,2.59,0,0,1-2.835-2.775c0-1.485.928-2.918,3.634-2.918h4.51l-.975,2.084h-3.9c-.746,0-.975.391-.975.765a.808.808,0,0,0,.853.808H956.4c2.03,0,2.91,1.151,2.91,2.659a2.778,2.778,0,0,1-3.021,2.948Z" transform="translate(-824.813 -466.073)"/></g></g></svg>