<svg xmlns="http://www.w3.org/2000/svg" viewBox="0 0 79 47.4"><defs><style>.a{fill:#26337a;}.b{fill:#fffffe;}.c{fill:none;}.d{fill:#ec982d;}</style></defs><g transform="translate(-2.5 -18.3)"><path class="a" d="M78.34,65.7a3.17,3.17,0,0,0,3.16-3.17V21.47a3.16,3.16,0,0,0-3.16-3.17H5.66A3.17,3.17,0,0,0,2.5,21.47V62.53A3.16,3.16,0,0,0,5.66,65.7Z"/><path class="b" d="M37.71,34.47,35.28,49.54h3.88l2.43-15.07Z"/><path class="b" d="M46.29,46.62a7.78,7.78,0,0,1-3.66-.79l-.5-.24L41.59,49a11.73,11.73,0,0,0,4.33.8c4.08,0,6.73-2,6.76-5.15,0-1.72-1-3-3.26-4.09-1.36-.7-2.19-1.16-2.18-1.87s.7-1.3,2.22-1.3a6.8,6.8,0,0,1,2.91.58l.35.17.53-3.27a9.6,9.6,0,0,0-3.48-.63c-3.84,0-6.54,2-6.56,5,0,2.17,1.93,3.37,3.4,4.09s2,1.21,2,1.87C48.61,46.16,47.41,46.62,46.29,46.62Z"/><path class="c" d="M60.74,39.85l-.26-1.3c-.2.56-.54,1.48-.52,1.44s-1.22,3.35-1.55,4.21h3.22Z"/><path class="b" d="M62.27,47.29c.12.53.47,2.26.47,2.26h3.6L63.2,34.49h-3a1.92,1.92,0,0,0-2,1.25L52.4,49.55h4.08s.67-1.86.82-2.27ZM60,40s.32-.87.52-1.44l.26,1.3.9,4.35H58.41C58.74,43.33,60,40,60,40Z"/><path class="b" d="M36.13,34.49H32L28.2,44.76l-.41-2.09a11.58,11.58,0,0,0-5.38-6.32l3.48,13.18H30Z"/><path class="d" d="M26.45,35.75a1.63,1.63,0,0,0-1.76-1.27H18.43l-.05.31c4.87,1.25,8.1,4.26,9.43,7.88Z"/></g></svg>